<?xml version="1.0" standalone="no"?>
<!DOCTYPE svg PUBLIC "-//W3C//DTD SVG 1.1//EN" "http://www.w3.org/Graphics/SVG/1.1/DTD/svg11.dtd" >
<svg xmlns="http://www.w3.org/2000/svg">
<metadata></metadata>
<defs>
<font id="futuraboldcondensed" horiz-adv-x="440" >
<font-face units-per-em="1000" ascent="800" descent="-200" />
<missing-glyph horiz-adv-x="220" />
<glyph unicode="&#xd;" horiz-adv-x="333" />
<glyph unicode=" "  horiz-adv-x="220" />
<glyph unicode="&#x09;" horiz-adv-x="220" />
<glyph unicode="&#xa0;" horiz-adv-x="220" />
<glyph unicode="!" horiz-adv-x="275" d="M224 77q0 -37 -25 -61.5t-61 -24.5t-61 24.5t-25 61.5t25 61.5t61 24.5t61 -24.5t25 -61.5zM71 209v504h134v-504h-134z" />
<glyph unicode="&#x22;" horiz-adv-x="314" d="M42 701h80v-272h-80v272zM193 701h80v-272h-80v272z" />
<glyph unicode="#" horiz-adv-x="769" d="M359 713h93l-75 -213h122l76 213h93l-75 -213h142l-29 -84h-143l-44 -123h151l-30 -84h-150l-76 -212h-93l76 212h-123l-77 -212h-93l76 212h-146l30 84h145l44 123h-154l30 84h154zM346 416l-44 -124h125l44 124h-125z" />
<glyph unicode="$" d="M18 84l57 99q61 -65 123 -65q40 0 65 23.5t25 60.5q0 19 -5 33.5t-20.5 27.5t-25 19.5t-37 21t-39.5 21.5q-72 42 -105.5 87t-33.5 108q0 67 32 114t91 67v90h42v-82q20 2 29 2q8 0 22 -2v82h42v-87q73 -17 114 -68l-67 -96q-55 51 -111 51q-30 0 -49 -18.5t-19 -45.5 q0 -23 13.5 -41t29.5 -27.5t51 -27.5l12 -6q88 -44 124 -88.5t36 -124.5q0 -74 -36 -128t-98 -72v-101h-42v94q-15 -4 -34 -4q-11 0 -17 1v-91h-42v98q-68 6 -127 75z" />
<glyph unicode="%" horiz-adv-x="819" d="M320 507q0 -105 -36.5 -159.5t-105.5 -54.5q-68 0 -105 54.5t-37 159.5t36.5 160t105.5 55t105.5 -55t36.5 -160zM135 509q0 -67 8.5 -95.5t34.5 -28.5q25 0 33.5 28.5t8.5 95.5q0 69 -8 97t-34 28q-25 0 -34 -29t-9 -96zM776 205q0 -105 -36.5 -159.5t-105.5 -54.5 q-68 0 -105 54.5t-37 159.5t36.5 160t105.5 55t105.5 -54.5t36.5 -160.5zM592 204q0 -68 8 -96t34 -28q25 0 34 28.5t9 95.5q0 68 -8.5 97t-34.5 29q-25 0 -33.5 -29t-8.5 -97zM188 -9l354 731h79l-352 -731h-81z" />
<glyph unicode="&#x26;" horiz-adv-x="545" d="M359 50q-56 -55 -132 -55q-83 0 -139 61t-56 149q0 111 112 188q-55 92 -55 150q0 70 45.5 113t123.5 43q68 0 111.5 -41t43.5 -106q0 -104 -114 -186l90 -143l71 76l72 -101l-81 -73l80 -125h-141zM239 459l15 13q38 33 38 74q0 21 -11 34.5t-28 13.5q-22 0 -35.5 -14.5 t-13.5 -37.5q0 -26 14 -49zM300 144l-89 141q-52 -33 -52 -76q0 -37 22.5 -61.5t54.5 -24.5q26 0 64 21z" />
<glyph unicode="'" horiz-adv-x="163" d="M42 701h80v-272h-80v272z" />
<glyph unicode="(" horiz-adv-x="277" d="M260 -187l-109 -30q-112 239 -112 488q0 258 112 489l109 -30q-102 -210 -102 -459q0 -239 102 -458z" />
<glyph unicode=")" horiz-adv-x="277" d="M17 -187q101 217 101 458q0 250 -101 459l109 30q111 -231 111 -489q0 -251 -111 -488z" />
<glyph unicode="*" d="M87 426l-33 56l111 58l-111 58l32 56l107 -66l-5 125h64l-5 -125l106 66l33 -56l-112 -58l111 -58l-32 -56l-106 67l5 -126h-64l5 126z" />
<glyph unicode="+" horiz-adv-x="833" d="M375 596h83v-257h251v-81h-251v-258h-83v258h-251v81h251v257z" />
<glyph unicode="," horiz-adv-x="220" d="M0 -137l79 296h141l-121 -296h-99z" />
<glyph unicode="-" horiz-adv-x="326" d="M37 162v155h252v-155h-252z" />
<glyph unicode="." horiz-adv-x="220" d="M196 81q0 -37 -25 -62t-61 -25t-61 25t-25 62t25 61.5t61 24.5t61 -24.5t25 -61.5z" />
<glyph unicode="/" horiz-adv-x="306" d="M220 722h86l-220 -815h-86z" />
<glyph unicode="0" d="M414 356q0 -179 -50.5 -272t-143.5 -93t-143.5 93t-50.5 272q0 180 50 273t144 93t144 -93t50 -273zM161 355q0 -126 12 -180.5t47 -54.5t46.5 54t11.5 181q0 129 -11.5 183.5t-46.5 54.5t-47 -55t-12 -183z" />
<glyph unicode="1" d="M164 0v595h-68v118h205v-713h-137z" />
<glyph unicode="2" d="M31 0l175 341q67 130 67 203q0 70 -52 70q-38 0 -50.5 -31.5t-12.5 -112.5h-116q-1 10 -1 29q0 110 48 166.5t140 56.5q79 0 125.5 -47.5t46.5 -128.5q0 -64 -28.5 -135t-88.5 -178l-61 -110h160v-123h-352z" />
<glyph unicode="3" d="M24 204h119v-8q0 -85 56 -85q63 0 63 103q0 56 -20.5 80.5t-69.5 24.5q-3 0 -8.5 -0.5t-8.5 -0.5v117h9q57 0 82.5 21t25.5 69q0 37 -15 57.5t-40 20.5q-55 0 -55 -81v-8h-115v17q0 93 45.5 142t131.5 49q80 0 123 -50t43 -144q0 -65 -27.5 -103t-78.5 -45v-9 q128 -25 128 -167q0 -100 -55.5 -157t-151.5 -57q-87 0 -134.5 51t-47.5 144q0 3 0.5 9t0.5 10z" />
<glyph unicode="4" d="M234 0v177h-205v107l187 429h137v-429h58v-107h-58v-177h-119zM120 284h119v202q0 17 5 95q-24 -85 -48 -136z" />
<glyph unicode="5" d="M28 19l18 129q54 -32 103 -32q53 0 82 30t29 85q0 64 -44.5 98t-128.5 34q-8 0 -36 -2l49 352h278v-121h-179l-18 -130h5q100 0 157 -58t57 -160q0 -116 -62.5 -184.5t-171.5 -68.5q-79 0 -138 28z" />
<glyph unicode="6" d="M184 423q48 34 89 34q66 0 104.5 -53.5t38.5 -151.5q0 -124 -51 -193t-142 -69q-95 0 -146 64t-51 184q0 57 17 119.5t31.5 94.5t51.5 109l73 152h137l-114 -224q-21 -42 -38 -66zM222 116q55 0 55 110q0 112 -51 112q-55 0 -55 -120q0 -102 51 -102z" />
<glyph unicode="7" d="M44 0l225 595h-215v118h390l-259 -713h-141z" />
<glyph unicode="8" d="M220 318q-58 0 -58 -98q0 -104 58 -104t58 101t-58 101zM219 611q-47 0 -47 -73q0 -44 11 -63.5t37 -19.5t37 18.5t11 59.5q0 78 -49 78zM139 387v6q-90 22 -90 151q0 86 44.5 132t126.5 46t126.5 -46t44.5 -132q0 -63 -23.5 -101.5t-66.5 -49.5v-6q53 -14 81.5 -62.5 t28.5 -124.5q0 -98 -50.5 -153.5t-140.5 -55.5t-140.5 55.5t-50.5 153.5q0 157 110 187z" />
<glyph unicode="9" d="M258 289q-46 -36 -91 -36q-66 0 -104.5 56t-38.5 156q0 124 51 190.5t146 66.5q90 0 140.5 -65.5t50.5 -183.5q0 -57 -16 -119.5t-29.5 -95t-47.5 -106.5l-69 -152h-138l110 223q21 43 36 66zM215 596q-53 0 -53 -111q0 -112 53 -112t53 112q0 111 -53 111z" />
<glyph unicode=":" horiz-adv-x="275" d="M224 81q0 -37 -25 -62t-61 -25t-61 25t-25 62t25 61.5t61 24.5t61 -24.5t25 -61.5zM224 368q0 -37 -25 -62t-61 -25t-61 25t-25 62t25 61.5t61 24.5t61 -24.5t25 -61.5z" />
<glyph unicode=";" horiz-adv-x="275" d="M224 368q0 -37 -25 -62t-61 -25t-61 25t-25 62t25 61.5t61 24.5t61 -24.5t25 -61.5zM-14 -137l80 296h141l-121 -296h-100z" />
<glyph unicode="&#x3c;" horiz-adv-x="833" d="M704 574v-90l-456 -186l456 -186v-89l-575 236v78z" />
<glyph unicode="=" horiz-adv-x="833" d="M124 440h585v-82h-585v82zM124 238h585v-81h-585v81z" />
<glyph unicode="&#x3e;" horiz-adv-x="833" d="M129 574l575 -237v-78l-575 -236v89l456 186l-456 186v90z" />
<glyph unicode="?" horiz-adv-x="431" d="M294 77q0 -37 -25 -61.5t-61 -24.5t-61 24.5t-25 61.5t25 61.5t61 24.5t61 -24.5t25 -61.5zM141 224v167q55 2 79.5 29t24.5 83q0 90 -48 90q-43 0 -43 -74v-5h-132v17q0 94 46 142.5t136 48.5q91 0 139.5 -56t48.5 -163q0 -158 -117 -183v-96h-134z" />
<glyph unicode="@" horiz-adv-x="1000" d="M602 345q-14 86 -90 86q-62 0 -106 -62.5t-44 -151.5q0 -48 22 -74t63 -26q43 0 79 32.5t49 84.5zM573 138q-52 -82 -148 -82q-74 0 -113.5 42t-39.5 122q0 115 68 193.5t162 78.5q84 0 121 -69l27 52h75l-72 -286q-4 -20 -4 -24q0 -19 13 -30t34 -11q53 0 104 56 q72 77 72 192q0 123 -90.5 200.5t-239.5 77.5q-135 0 -230 -61q-89 -56 -136.5 -142.5t-47.5 -192.5q0 -152 102.5 -243.5t272.5 -91.5q167 0 300 93l33 -48q-147 -111 -329 -111q-189 0 -309 93q-150 114 -150 309q0 163 100 286q146 178 397 178q170 0 278 -84 q129 -99 129 -262q0 -164 -122 -263q-69 -55 -155 -55q-102 0 -102 81v2z" />
<glyph unicode="A" horiz-adv-x="465" d="M-4 0l166 713h149l158 -713h-142l-24 125h-143l-22 -125h-142zM186 236h95q-29 149 -47 329q-21 -161 -48 -329z" />
<glyph unicode="B" horiz-adv-x="488" d="M56 0v713h138q136 0 196 -42t60 -148q0 -112 -90 -156q101 -36 101 -163q0 -99 -63 -154q-36 -32 -83 -41t-127 -9h-132zM194 127q4 0 10 -0.5t10 -0.5q55 0 79.5 22t24.5 70q0 51 -25 73t-82 22h-17v-186zM194 417h15q54 0 80 21t26 67q0 92 -107 92h-14v-180z" />
<glyph unicode="C" horiz-adv-x="455" d="M423 8q-41 -17 -83 -17q-135 0 -221 99t-86 260q0 169 84 270.5t217 101.5q49 0 89 -17v-133q-41 16 -78 16q-70 0 -115 -62t-45 -168q0 -102 46.5 -163t116.5 -61q36 0 75 17v-143z" />
<glyph unicode="D" horiz-adv-x="538" d="M56 0v713h122q328 0 328 -357q0 -210 -123 -303q-43 -32 -93 -42.5t-127 -10.5h-107zM197 132h11q75 0 115.5 56.5t40.5 165.5q0 229 -158 229h-9v-451z" />
<glyph unicode="E" horiz-adv-x="396" d="M56 0v713h300v-132h-162v-144h147v-131h-147v-167h162v-139h-300z" />
<glyph unicode="F" horiz-adv-x="390" d="M56 0v713h308v-132h-170v-148h156v-131h-156v-302h-138z" />
<glyph unicode="G" horiz-adv-x="556" d="M258 403h265q0 -5 0.5 -16t0.5 -17q0 -181 -66.5 -280t-180.5 -99q-112 0 -178.5 97t-66.5 268q0 172 69 269t186 97q80 0 136 -46.5t82 -136.5l-128 -59q-16 106 -93 106q-58 0 -84 -56.5t-26 -173.5q0 -231 110 -231q47 0 74 39.5t27 112.5h-127v126z" />
<glyph unicode="H" horiz-adv-x="553" d="M56 0v713h141v-264h159v264h142v-713h-142v310h-159v-310h-141z" />
<glyph unicode="I" horiz-adv-x="270" d="M62 0v713h145v-713h-145z" />
<glyph unicode="J" horiz-adv-x="315" d="M3 7v129q32 -17 54 -17q15 0 25.5 3.5t17.5 14.5t11 21t5.5 32t2 39t0.5 51v433h144v-497q0 -62 -6 -98.5t-28 -65.5q-48 -62 -139 -62q-51 0 -87 17z" />
<glyph unicode="K" horiz-adv-x="476" d="M56 1v712h138v-311l139 311h148l-147 -325l152 -387h-152l-140 347v-347h-138z" />
<glyph unicode="L" horiz-adv-x="359" d="M56 0v713h141v-574h162v-139h-303z" />
<glyph unicode="M" horiz-adv-x="667" d="M21 0l70 713h183l37 -272q16 -122 23 -230q17 179 25 230l46 272h181l60 -713h-144l-15 331q-8 176 -8 248l-93 -579h-103l-87 583q0 -62 -12 -254l-22 -329h-141z" />
<glyph unicode="N" horiz-adv-x="554" d="M56 0v713h144l144 -384q14 -39 44 -147q-22 149 -22 257v274h132v-713h-132l-156 399q-3 7 -33 119q10 -81 10 -218v-300h-131z" />
<glyph unicode="O" horiz-adv-x="565" d="M533 346q0 -164 -68.5 -259.5t-182.5 -95.5q-117 0 -183.5 96t-66.5 269t67.5 269.5t182.5 96.5q116 0 183.5 -98.5t67.5 -277.5zM282 127q109 0 109 229q0 230 -109 230q-108 0 -108 -230q0 -229 108 -229z" />
<glyph unicode="P" horiz-adv-x="455" d="M56 0v713h148q117 0 174.5 -51t57.5 -156q0 -100 -55 -155.5t-155 -55.5q-21 0 -32 1v-296h-138zM194 404q2 0 7 -0.5t8 -0.5q93 0 93 101q0 99 -93 99q-3 0 -8 -0.5t-7 -0.5v-198z" />
<glyph unicode="Q" horiz-adv-x="565" d="M539 15l-77 -67l-67 74q-44 -29 -113 -29q-118 0 -184 97.5t-66 276.5q0 167 67.5 261t182.5 94q119 0 185 -97t66 -278q0 -173 -67 -252zM305 273l67 -74q19 58 19 156q0 232 -109 232t-109 -244q0 -219 108 -219q8 0 22 2l-75 83z" />
<glyph unicode="R" horiz-adv-x="459" d="M56 0v713h148q120 0 176 -47t56 -154q0 -150 -113 -187l137 -325h-150l-116 296v-296h-138zM194 404q2 0 7.5 -0.5t8.5 -0.5q93 0 93 102q0 51 -21.5 74.5t-68.5 23.5q-12 0 -19 -1v-198z" />
<glyph unicode="S" horiz-adv-x="384" d="M34 25v148q53 -47 105 -47q36 0 57 19t21 52q0 18 -8.5 34t-14.5 23t-28.5 26.5t-28.5 24.5q-60 55 -87 101.5t-27 109.5q0 92 52 149t136 57q58 0 120 -35v-126q-66 32 -95 32q-31 0 -50.5 -19.5t-19.5 -50.5q0 -33 19 -57.5t64 -63.5q62 -53 87.5 -92.5t25.5 -108.5 q0 -97 -55 -153.5t-150 -56.5q-71 0 -123 34z" />
<glyph unicode="T" horiz-adv-x="389" d="M123 0v581h-109v132h361v-132h-109v-581h-143z" />
<glyph unicode="U" horiz-adv-x="549" d="M497 713v-427v-21q0 -132 -21 -173q-50 -101 -201 -101t-202 101q-21 42 -21 173v21v427h142v-459q0 -77 14.5 -107.5t66.5 -30.5t66.5 30t14.5 108v459h141z" />
<glyph unicode="V" horiz-adv-x="486" d="M184 0l-203 713h144l84 -323q24 -95 34 -214q7 111 32 211l82 326h148l-202 -713h-119z" />
<glyph unicode="W" horiz-adv-x="731" d="M1 713h144l51 -322q14 -86 22 -217l93 539h118l93 -539q0 95 16 197l53 342h140l-143 -713h-125l-76 393q-12 60 -16 160q-10 -110 -19 -159l-79 -394h-128z" />
<glyph unicode="X" horiz-adv-x="422" d="M294 0l-56 145q-17 46 -28 105q-11 -60 -25 -105l-49 -145h-162l165 361l-150 352h149l54 -150q8 -23 22 -86q12 57 23 86l53 150h147l-150 -352l161 -361h-154z" />
<glyph unicode="Y" horiz-adv-x="391" d="M124 0v335l-165 378h150l47 -129q25 -69 44 -139q19 80 40 135l52 133h139l-166 -378v-335h-141z" />
<glyph unicode="Z" horiz-adv-x="428" d="M-8 0l230 582h-196v131h388l-227 -574h207v-139h-402z" />
<glyph unicode="[" horiz-adv-x="277" d="M32 -194v930h227v-101h-92v-728h92v-101h-227z" />
<glyph unicode="\" horiz-adv-x="306" d="M220 -93l-220 815h86l220 -815h-86z" />
<glyph unicode="]" horiz-adv-x="277" d="M244 -194h-227v101h93v728h-93v101h227v-930z" />
<glyph unicode="^" horiz-adv-x="1000" d="M447 713h106l242 -274h-101l-194 194l-195 -194h-101z" />
<glyph unicode="_" horiz-adv-x="500" d="M0 -152h500v-84h-500v84z" />
<glyph unicode="`" horiz-adv-x="500" d="M112 725h120l91 -181h-65z" />
<glyph unicode="a" horiz-adv-x="453" d="M403 0h-124v71q-42 -80 -108 -80q-68 0 -104.5 63t-36.5 185q0 119 37.5 182t104.5 63q62 0 107 -78v73h124v-479zM279 247q0 129 -63 129q-29 0 -42 -31.5t-13 -98.5q0 -136 58 -136q32 0 46 33t14 104z" />
<glyph unicode="b" horiz-adv-x="453" d="M50 0v757h127v-346q42 73 104 73q69 0 105 -64.5t36 -190.5q0 -114 -37.5 -176.5t-100.5 -62.5q-71 0 -107 80v-70h-127zM236 377q-32 0 -46 -31.5t-14 -98.5q0 -72 13 -105t45 -33q57 0 57 140q0 66 -13 97t-42 31z" />
<glyph unicode="c" horiz-adv-x="318" d="M300 343q-31 22 -60 22q-37 0 -60 -32.5t-23 -89.5q0 -59 23 -91t64 -32q31 0 56 25v-126q-41 -28 -91 -28q-83 0 -133 66.5t-50 182.5q0 115 50 181.5t133 66.5q47 0 91 -19v-126z" />
<glyph unicode="d" horiz-adv-x="453" d="M403 0h-128v70q-38 -80 -107 -80q-65 0 -101.5 64t-36.5 185q0 119 37.5 182t104.5 63q61 0 103 -73v346h128v-757zM275 247q0 67 -13.5 98.5t-45.5 31.5q-30 0 -42.5 -31.5t-12.5 -99.5q0 -137 58 -137q31 0 43.5 33t12.5 105z" />
<glyph unicode="e" horiz-adv-x="428" d="M152 204v-4q0 -53 19 -82t54 -29q45 0 64 55h114q-16 -72 -65 -112.5t-120 -40.5q-89 0 -142 66.5t-53 181.5t53 182t142 67q191 0 191 -261v-23h-257zM293 280q-3 103 -71 103q-70 0 -70 -103h141z" />
<glyph unicode="f" horiz-adv-x="259" d="M250 761v-113q-6 1 -15 1q-30 0 -36.5 -17.5t-6.5 -71.5v-81h58v-101h-58v-378h-132v378h-48v101h48v106v21q0 80 26 114q37 46 113 46q19 0 51 -5z" />
<glyph unicode="g" horiz-adv-x="453" d="M275 247q0 68 -13.5 99t-45.5 31q-30 0 -42.5 -31.5t-12.5 -99.5q0 -137 58 -137q31 0 43.5 33t12.5 105zM275 479h128v-443q0 -144 -37 -200.5t-151 -56.5q-84 0 -130.5 43.5t-46.5 122.5v7h112q0 -69 63 -69q35 0 48.5 18.5t13.5 62.5v99q-47 -68 -104 -68 q-68 0 -104.5 62.5t-36.5 182.5q0 118 37.5 181t104.5 63q64 0 103 -78v73z" />
<glyph unicode="h" horiz-adv-x="447" d="M270 0v290q0 39 -9 55.5t-34 16.5q-26 0 -37 -19t-11 -59v-284h-132v757h132v-336q53 63 123 63q62 0 81 -35.5t19 -121.5v-327h-132z" />
<glyph unicode="i" horiz-adv-x="236" d="M52 0v479h132v-479h-132zM42 607q0 33 22 55t54 22t54 -22.5t22 -54.5q0 -31 -22 -53t-54 -22t-54 21.5t-22 53.5z" />
<glyph unicode="j" horiz-adv-x="236" d="M52 -193v672h132v-672h-132zM42 607q0 33 22 55t54 22t54 -22.5t22 -54.5q0 -31 -22 -53t-54 -22t-54 21.5t-22 53.5z" />
<glyph unicode="k" horiz-adv-x="419" d="M181 282q5 12 28 61l68 136h149l-120 -199l129 -280h-147l-107 261v-261h-132v757h132v-475z" />
<glyph unicode="l" horiz-adv-x="236" d="M52 0v757h132v-757h-132z" />
<glyph unicode="m" horiz-adv-x="656" d="M48 0v479h122v-74q49 79 126 79q79 0 96 -79q55 79 125 79q59 0 76.5 -42t17.5 -143v-299h-130v290q0 38 -8.5 55t-30.5 17q-27 0 -37.5 -18t-10.5 -60v-284h-129v290q0 38 -8.5 55.5t-30.5 17.5q-27 0 -38 -19t-11 -60v-284h-129z" />
<glyph unicode="n" horiz-adv-x="447" d="M270 0v290q0 39 -9 55.5t-34 16.5q-26 0 -37 -19t-11 -59v-284h-132v479h123v-74q51 79 132 79q61 0 80.5 -35.5t19.5 -121.5v-327h-132z" />
<glyph unicode="o" horiz-adv-x="444" d="M422 240q0 -115 -55 -182t-145 -67q-91 0 -145 67t-54 182t54 181.5t145 66.5t145.5 -66.5t54.5 -181.5zM222 107q35 0 54.5 34.5t19.5 99.5t-19.5 99.5t-54.5 34.5t-54 -34.5t-19 -99.5t19 -99.5t54 -34.5z" />
<glyph unicode="p" horiz-adv-x="453" d="M50 -193v672h124v-73q45 78 107 78q67 0 104 -63.5t37 -183.5t-36.5 -184t-101.5 -64q-70 0 -107 81v-263h-127zM236 376q-32 0 -45.5 -31t-13.5 -98q0 -72 13 -105t44 -33q57 0 57 140q0 66 -13 96.5t-42 30.5z" />
<glyph unicode="q" horiz-adv-x="453" d="M403 -193h-128v263q-38 -81 -107 -81q-65 0 -101.5 64t-36.5 184t37 183.5t105 63.5q62 0 107 -78v73h124v-672zM275 247q0 67 -13.5 98t-45.5 31q-30 0 -42.5 -31.5t-12.5 -99.5q0 -136 58 -136q31 0 43.5 33t12.5 105z" />
<glyph unicode="r" horiz-adv-x="287" d="M49 0v479h123v-85q31 93 108 94v-126h-9q-58 0 -74 -29t-16 -108v-225h-132z" />
<glyph unicode="s" horiz-adv-x="335" d="M13 41l55 97q47 -31 75 -31q15 0 25 9.5t10 24.5q0 9 -3 16t-11 14.5t-13 11.5t-20 13t-21 13q-45 30 -65 60t-20 73q0 67 42 106.5t113 39.5t131 -41l-56 -95q-38 32 -66 32q-16 0 -26 -9t-10 -23q0 -8 2.5 -14t10 -12.5t13.5 -10.5t19.5 -12.5t21.5 -13.5 q48 -33 69.5 -64t21.5 -77q0 -69 -45.5 -113t-120.5 -44q-72 0 -132 50z" />
<glyph unicode="t" horiz-adv-x="257" d="M62 0v376h-52v103h52v138h132v-138h53v-103h-53v-376h-132z" />
<glyph unicode="u" horiz-adv-x="441" d="M396 479v-248q0 -134 -34 -187t-141 -53t-141.5 53t-34.5 187v248h129v-308q0 -35 9.5 -49.5t36.5 -14.5q28 0 37.5 14.5t9.5 49.5v308h129z" />
<glyph unicode="v" horiz-adv-x="377" d="M124 0l-123 479h128l41 -216q9 -47 18 -141q9 92 18 141l42 216h128l-123 -479h-129z" />
<glyph unicode="w" horiz-adv-x="579" d="M341 479l39 -206q7 -44 17 -141q11 94 19 143l37 204h128l-126 -479h-114l-35 199q-5 27 -17 160q-14 -148 -16 -160l-35 -199h-114l-126 479h128l36 -204q1 -8 19 -143q8 85 18 141l38 206h104z" />
<glyph unicode="x" horiz-adv-x="370" d="M-6 0l122 257l-114 222h127l40 -80q14 -30 17 -55q4 27 18 56l37 79h131l-121 -220l125 -259h-132l-43 109q-9 26 -15 65q-6 -38 -17 -64l-47 -110h-128z" />
<glyph unicode="y" horiz-adv-x="370" d="M66 -193l59 193l-124 479h130l46 -212q9 -42 10 -90q10 80 14 98l44 204h130l-180 -672h-129z" />
<glyph unicode="z" horiz-adv-x="329" d="M9 0l138 372h-127v107h298l-136 -364h126v-115h-299z" />
<glyph unicode="{" horiz-adv-x="500" d="M427 721v-87q-4 0 -12 0.5t-11 0.5q-56 0 -73.5 -22t-17.5 -83v-118q0 -72 -20 -105.5t-79 -47.5q59 -14 79 -48t20 -105v-117q0 -62 17.5 -84t74.5 -22q3 0 10.5 0.5t11.5 0.5v-86h-31q-93 0 -133 24q-31 18 -40.5 51t-9.5 95v121q0 70 -25.5 99t-87.5 29q-4 0 -11 -0.5 t-10 -0.5v87q3 0 10 -0.5t11 -0.5q62 0 87.5 29t25.5 98v121q0 63 9.5 95.5t40.5 51.5q41 24 142 24h22z" />
<glyph unicode="|" horiz-adv-x="500" d="M207 764h87v-1000h-87v1000z" />
<glyph unicode="}" horiz-adv-x="500" d="M74 721h22q100 0 141 -24q31 -19 40.5 -52t9.5 -95v-121q0 -69 25 -98t88 -29q3 0 10 0.5t11 0.5v-87q-3 0 -10 0.5t-11 0.5q-62 0 -87.5 -29t-25.5 -99v-121q0 -62 -9.5 -94.5t-40.5 -51.5q-40 -24 -141 -24h-22v86q4 0 11.5 -0.5t10.5 -0.5q56 0 73.5 22t17.5 84v117 q0 71 20.5 105t79.5 48q-60 14 -80 48t-20 105v118q0 61 -17.5 83t-72.5 22q-3 0 -11 -0.5t-12 -0.5v87z" />
<glyph unicode="~" horiz-adv-x="833" d="M747 383v-90q-100 -69 -186 -69q-44 0 -93 17q-10 3 -39 13.5t-41.5 14t-35 9.5t-41 8.5t-36.5 2.5q-79 0 -188 -77v91q103 70 189 70q58 0 143 -29q7 -2 24 -8t24.5 -9t22.5 -7.5t24.5 -6.5t22.5 -3.5t25 -1.5q81 0 185 75z" />
<glyph unicode="&#xa1;" horiz-adv-x="275" d="M138 722q36 0 61 -24.5t25 -61.5t-25 -61.5t-61 -24.5t-61 24.5t-25 61.5t25 61.5t61 24.5zM71 504h134v-504h-134v504z" />
<glyph unicode="&#xa2;" d="M180 16v100q-69 7 -110 73t-41 176q0 96 39.5 157.5t111.5 78.5v95h63v-95q34 0 64 -17v-122q-35 20 -63 20q-84 0 -84 -115q0 -128 84 -128q28 0 63 20v-124q-30 -13 -64 -19v-100h-63z" />
<glyph unicode="&#xa3;" d="M23 337h62q-53 104 -53 183q0 96 55 149t153 53q88 0 134.5 -44.5t46.5 -125.5v-15l-109 -33v7q0 89 -75 89q-36 0 -55.5 -24.5t-19.5 -69.5q0 -23 6.5 -48.5t20.5 -62.5t20 -58h129v-68h-116q7 -42 7 -62q0 -49 -24 -92q36 -21 74 -21q59 0 116 58l55 -94 q-67 -67 -163 -67q-35 0 -87 15.5t-74 15.5q-33 0 -82 -31l-48 84q46 51 104 51q2 0 6.5 -0.5t6.5 -0.5q8 43 8 72q0 36 -12 72h-86v68z" />
<glyph unicode="&#xa4;" horiz-adv-x="606" d="M82 698l99 -99q53 40 122 40q70 0 123 -40l99 99l46 -45l-100 -100q39 -52 39 -121t-39 -121l100 -100l-46 -45l-99 100q-55 -40 -122 -40q-70 0 -123 40l-99 -100l-45 45l99 100q-39 52 -39 121q0 68 39 121l-99 100zM304 574q-58 0 -100 -42t-42 -100q0 -59 41.5 -100 t100.5 -41t100.5 41t41.5 100q0 58 -42 100t-100 42z" />
<glyph unicode="&#xa5;" horiz-adv-x="483" d="M175 0v322h-163v41h152l-34 77h-118v41h100l-101 232h134l51 -132q32 -83 49 -141q20 83 43 138l58 135h128l-102 -232h100v-41h-118l-34 -77h152v-41h-164v-322h-133z" />
<glyph unicode="&#xa6;" horiz-adv-x="500" d="M207 699h87v-370h-87v370zM207 199h87v-370h-87v370z" />
<glyph unicode="&#xa7;" d="M390 535h-119v5q0 40 -11.5 58t-38.5 18q-19 0 -32.5 -14.5t-13.5 -35.5q0 -14 4.5 -25t16.5 -22t21 -17t31.5 -19t33.5 -20q69 -43 99 -86t30 -113q0 -119 -102 -157q82 -47 82 -139q0 -75 -45.5 -121.5t-123.5 -46.5t-119.5 48.5t-41.5 139.5v3h115v-9q0 -77 47 -77 q20 0 33 16t13 42q0 9 -1.5 16.5t-3 13.5t-6 13t-7 11t-10 10.5t-11 9.5t-13.5 9.5t-14 9t-16.5 10l-17.5 10.5q-73 44 -106.5 86t-33.5 105q0 118 111 163q-79 59 -79 139q0 68 46 110.5t122 42.5q78 0 119.5 -47t41.5 -137v-3zM221 194q51 0 51 79q0 78 -51 78t-51 -78 q0 -79 51 -79z" />
<glyph unicode="&#xa8;" horiz-adv-x="500" d="M272 633q0 23 17.5 40.5t40.5 17.5q24 0 41.5 -17.5t17.5 -40.5q0 -25 -17 -42t-42 -17q-24 0 -41 17.5t-17 41.5zM112 633q0 23 17.5 40.5t40.5 17.5q24 0 41.5 -17.5t17.5 -40.5q0 -25 -17 -42t-42 -17q-24 0 -41 17.5t-17 41.5z" />
<glyph unicode="&#xa9;" horiz-adv-x="833" d="M416 718q151 0 257 -106q105 -105 105 -255q0 -153 -104 -254q-110 -108 -258 -108q-147 0 -254 107t-107 255q0 146 108 256q103 105 253 105zM417 665q-130 0 -217 -89q-91 -93 -91 -219t91 -217t217 -91q125 0 219 92q89 87 89 216t-89 218q-90 90 -219 90zM589 441 h-81q-5 36 -29.5 55.5t-63.5 19.5q-47 0 -75 -41.5t-28 -117.5q0 -75 28.5 -115t79.5 -40q39 0 63 21.5t29 60.5h81q-4 -65 -52 -105.5t-124 -40.5q-89 0 -141.5 58t-52.5 158q0 102 54 162t142 60q72 0 118.5 -37.5t51.5 -97.5z" />
<glyph unicode="&#xaa;" horiz-adv-x="340" d="M302 378h-93v50q-32 -56 -81 -56q-105 0 -105 173q0 83 28 127.5t78 44.5q47 0 80 -55v51h93v-335zM209 551q0 90 -47 90q-41 0 -41 -91q0 -95 43 -95q24 0 34.5 23t10.5 73z" />
<glyph unicode="&#xab;" horiz-adv-x="407" d="M391 66l-72 -41l-123 219l123 209l72 -41l-96 -168zM212 66l-73 -41l-123 219l123 209l73 -41l-97 -168z" />
<glyph unicode="&#xac;" horiz-adv-x="833" d="M124 421h585v-245h-81v164h-504v81z" />
<glyph unicode="&#xae;" horiz-adv-x="833" d="M416 718q153 0 259 -108q103 -105 103 -253q0 -153 -106 -256q-109 -106 -256 -106q-149 0 -256 109q-105 107 -105 253q0 149 109 258q103 103 252 103zM417 665q-127 0 -215 -88q-93 -95 -93 -220t89 -216q92 -92 214 -92q130 0 223 90q90 87 90 213q0 131 -88 221 q-92 92 -220 92zM269 566h156q171 0 171 -110q0 -92 -90 -112l90 -183h-97l-80 169h-63v-169h-87v405zM356 511v-127h57q49 0 71.5 14.5t22.5 47.5q0 65 -98 65h-53z" />
<glyph unicode="&#xaf;" horiz-adv-x="500" d="M130 595v71h241v-71h-241z" />
<glyph unicode="&#xb0;" horiz-adv-x="329" d="M165 713q59 0 101.5 -42.5t42.5 -102.5q0 -59 -42.5 -101.5t-102.5 -42.5t-101.5 41.5t-41.5 102.5t42 103t102 42zM165 659q-38 0 -64.5 -26.5t-26.5 -63.5t27 -64t64 -27q38 0 64 27t26 64t-26.5 63.5t-63.5 26.5z" />
<glyph unicode="&#xb1;" horiz-adv-x="833" d="M375 589h83v-163h251v-81h-251v-163h-83v163h-251v81h251v163zM124 89h585v-82h-585v82z" />
<glyph unicode="&#xb2;" horiz-adv-x="290" d="M20 285l116 205q44 77 44 121q0 42 -34 42q-25 0 -33.5 -19t-8.5 -67h-76q-1 6 -1 17q0 134 124 134q52 0 83 -28.5t31 -76.5q0 -39 -19 -81t-59 -107l-40 -66h106v-74h-233z" />
<glyph unicode="&#xb3;" horiz-adv-x="290" d="M16 407h78v-4q0 -51 37 -51q42 0 42 61q0 34 -13.5 48.5t-45.5 14.5h-12v70h6q38 0 55 12.5t17 41.5q0 22 -10 34.5t-27 12.5q-36 0 -36 -49v-5h-76v11q0 56 30 85t87 29q53 0 81 -30t28 -86q0 -81 -70 -89v-5q85 -16 85 -101q0 -59 -36.5 -93.5t-100.5 -34.5 q-57 0 -88.5 30.5t-31.5 86.5q0 2 0.5 5.5t0.5 5.5z" />
<glyph unicode="&#xb4;" horiz-adv-x="500" d="M388 725l-146 -181h-65l91 181h120z" />
<glyph unicode="&#xb6;" horiz-adv-x="500" d="M473 722v-48h-57v-674h-63v674h-83v-674h-63v383q-83 3 -131.5 49.5t-48.5 119.5q0 76 51.5 123t139.5 47h255z" />
<glyph unicode="&#xb7;" horiz-adv-x="220" d="M196 356q0 -37 -25 -61.5t-61 -24.5t-61 24.5t-25 61.5t25 61.5t61 24.5t61 -24.5t25 -61.5z" />
<glyph unicode="&#xb8;" horiz-adv-x="500" d="M134 -214v63q64 -21 103 -21q42 0 42 36q0 34 -53 34q-13 0 -21 -1v103h47v-44h6q97 0 97 -93q0 -98 -111 -98q-43 0 -110 21z" />
<glyph unicode="&#xb9;" horiz-adv-x="290" d="M108 285v357h-45v71h136v-428h-91z" />
<glyph unicode="&#xba;" horiz-adv-x="333" d="M317 546q0 -81 -41 -127.5t-109 -46.5t-109 47t-41 127t41 127t109 47t109 -47t41 -127zM167 453q55 0 55 94q0 93 -55 93t-55 -93q0 -94 55 -94z" />
<glyph unicode="&#xbb;" horiz-adv-x="407" d="M16 66l96 178l-96 168l73 41l123 -209l-123 -219zM196 66l96 178l-96 168l73 41l122 -209l-122 -219z" />
<glyph unicode="&#xbc;" horiz-adv-x="721" d="M103 314v333h-43v66h130v-399h-87zM110 -9l417 731h83l-417 -731h-83zM591 0v99h-129v60l118 240h86v-240h37v-60h-37v-99h-75zM520 159h75v113q0 14 3 53q-18 -53 -31 -76z" />
<glyph unicode="&#xbd;" horiz-adv-x="721" d="M103 314v333h-43v66h130v-399h-87zM110 -9l417 731h83l-417 -731h-83zM464 0l110 191q42 74 42 114q0 39 -33 39q-24 0 -31.5 -18t-7.5 -63h-74v16q0 125 118 125q50 0 79.5 -26.5t29.5 -71.5q0 -36 -18 -75.5t-56 -100.5l-39 -61h101v-69h-221z" />
<glyph unicode="&#xbe;" horiz-adv-x="721" d="M15 428h75v-4q0 -48 35 -48q40 0 40 58q0 32 -13 45.5t-44 13.5q-2 0 -5 -0.5t-5 -0.5v66h5q36 0 52 11.5t16 38.5q0 21 -9.5 32.5t-24.5 11.5q-35 0 -35 -46v-4h-72v9q0 107 111 107q51 0 78 -28t27 -80q0 -75 -67 -83v-5q81 -15 81 -94q0 -56 -35 -88t-96 -32 q-55 0 -85 29t-30 81q0 1 0.5 4.5t0.5 5.5zM110 -9l417 731h83l-417 -731h-83zM591 0v99h-129v60l118 240h86v-240h37v-60h-37v-99h-75zM520 159h75v113q0 14 3 53q-18 -53 -31 -76z" />
<glyph unicode="&#xbf;" horiz-adv-x="431" d="M135 636q0 37 25 61.5t61 24.5t61 -24.5t25 -61.5t-25 -61.5t-61 -24.5t-61 24.5t-25 61.5zM288 488v-167q-57 -2 -80.5 -29.5t-23.5 -89.5q0 -83 48 -83q43 0 43 74v5h132v-17q0 -94 -46 -142.5t-136 -48.5q-92 0 -140 55.5t-48 163.5q0 159 117 184v95h134z" />
<glyph unicode="&#xc0;" horiz-adv-x="465" d="M-4 0l166 713h149l158 -713h-142l-24 125h-143l-22 -125h-142zM186 236h95q-29 149 -47 329q-21 -161 -48 -329zM99 959h120l91 -181h-65z" />
<glyph unicode="&#xc1;" horiz-adv-x="465" d="M-4 0l166 713h149l158 -713h-142l-24 125h-143l-22 -125h-142zM186 236h95q-29 149 -47 329q-21 -161 -48 -329zM375 959l-146 -181h-65l91 181h120z" />
<glyph unicode="&#xc2;" horiz-adv-x="465" d="M-4 0l166 713h149l158 -713h-142l-24 125h-143l-22 -125h-142zM186 236h95q-29 149 -47 329q-21 -161 -48 -329zM106 778l82 181h98l82 -181h-59l-72 106l-72 -106h-59z" />
<glyph unicode="&#xc3;" horiz-adv-x="465" d="M-4 0l166 713h149l158 -713h-142l-24 125h-143l-22 -125h-142zM186 236h95q-29 149 -47 329q-21 -161 -48 -329zM368 935q-8 -61 -28.5 -90t-57.5 -29q-13 0 -30 5l-37 13q-14 5 -27 5q-26 0 -36 -38h-46q19 115 85 115q16 0 36 -7l37 -12q11 -4 21 -4q28 0 38 42h45z " />
<glyph unicode="&#xc4;" horiz-adv-x="465" d="M-4 0l166 713h149l158 -713h-142l-24 125h-143l-22 -125h-142zM186 236h95q-29 149 -47 329q-21 -161 -48 -329zM259 867q0 23 17.5 40.5t40.5 17.5q24 0 41.5 -17.5t17.5 -40.5q0 -25 -17 -42t-42 -17q-24 0 -41 17.5t-17 41.5zM99 867q0 23 17.5 40.5t40.5 17.5 q24 0 41.5 -17.5t17.5 -40.5q0 -25 -17 -42t-42 -17q-24 0 -41 17.5t-17 41.5z" />
<glyph unicode="&#xc5;" horiz-adv-x="465" d="M186 236h95q-29 149 -47 329q-21 -161 -48 -329zM-4 0l166 713h149l158 -713h-142l-24 125h-143l-22 -125h-142zM128 854q0 46 32 77.5t77 31.5t76.5 -31.5t31.5 -77.5q0 -45 -31.5 -76.5t-76.5 -31.5t-77 31.5t-32 76.5zM188 854q0 -20 14.5 -34t34.5 -14t35 14.5 t15 33.5q0 20 -15 35t-35 15t-34.5 -14.5t-14.5 -35.5z" />
<glyph unicode="&#xc6;" horiz-adv-x="565" d="M-5 0l174 713h281l23 -131h-130l27 -146h130l24 -131h-130l31 -166h129l26 -139h-270l-18 121h-126l-27 -121h-144zM274 242l-27 172q-8 53 -10 118q-1 -34 -16 -118l-33 -172h86z" />
<glyph unicode="&#xc7;" horiz-adv-x="455" d="M423 8q-41 -17 -83 -17q-135 0 -221 99t-86 260q0 169 84 270.5t217 101.5q49 0 89 -17v-133q-41 16 -78 16q-70 0 -115 -62t-45 -168q0 -102 46.5 -163t116.5 -61q36 0 75 17v-143zM188 -214v63q64 -21 103 -21q42 0 42 36q0 34 -53 34q-13 0 -21 -1v103h47v-44h6 q97 0 97 -93q0 -98 -111 -98q-43 0 -110 21z" />
<glyph unicode="&#xc8;" horiz-adv-x="396" d="M56 0v713h300v-132h-162v-144h147v-131h-147v-167h162v-139h-300zM66 959h120l91 -181h-65z" />
<glyph unicode="&#xc9;" horiz-adv-x="396" d="M56 0v713h300v-132h-162v-144h147v-131h-147v-167h162v-139h-300zM342 959l-146 -181h-65l91 181h120z" />
<glyph unicode="&#xca;" horiz-adv-x="396" d="M56 0v713h300v-132h-162v-144h147v-131h-147v-167h162v-139h-300zM73 778l82 181h98l82 -181h-59l-72 106l-72 -106h-59z" />
<glyph unicode="&#xcb;" horiz-adv-x="396" d="M56 0v713h300v-132h-162v-144h147v-131h-147v-167h162v-139h-300zM226 867q0 23 17.5 40.5t40.5 17.5q24 0 41.5 -17.5t17.5 -40.5q0 -25 -17 -42t-42 -17q-24 0 -41 17.5t-17 41.5zM66 867q0 23 17.5 40.5t40.5 17.5q24 0 41.5 -17.5t17.5 -40.5q0 -25 -17 -42t-42 -17 q-24 0 -41 17.5t-17 41.5z" />
<glyph unicode="&#xcc;" horiz-adv-x="270" d="M62 0v713h145v-713h-145zM-3 959h120l91 -181h-65z" />
<glyph unicode="&#xcd;" horiz-adv-x="270" d="M62 0v713h145v-713h-145zM273 959l-146 -181h-65l91 181h120z" />
<glyph unicode="&#xce;" horiz-adv-x="270" d="M62 0v713h145v-713h-145zM4 778l82 181h98l82 -181h-59l-72 106l-72 -106h-59z" />
<glyph unicode="&#xcf;" horiz-adv-x="270" d="M62 0v713h145v-713h-145zM157 867q0 23 17.5 40.5t40.5 17.5q24 0 41.5 -17.5t17.5 -40.5q0 -25 -17 -42t-42 -17q-24 0 -41 17.5t-17 41.5zM-3 867q0 23 17.5 40.5t40.5 17.5q24 0 41.5 -17.5t17.5 -40.5q0 -25 -17 -42t-42 -17q-24 0 -41 17.5t-17 41.5z" />
<glyph unicode="&#xd0;" horiz-adv-x="543" d="M60 0v318h-60v123h60v272h123q328 0 328 -357q0 -210 -123 -303q-43 -32 -93.5 -42.5t-127.5 -10.5h-107zM201 132h12q155 0 155 224q0 227 -157 227h-10v-142h75v-123h-75v-186z" />
<glyph unicode="&#xd1;" horiz-adv-x="554" d="M56 0v713h144l144 -384q14 -39 44 -147q-22 149 -22 257v274h132v-713h-132l-156 399q-3 7 -33 119q10 -81 10 -218v-300h-131zM412 935q-8 -61 -28.5 -90t-57.5 -29q-13 0 -30 5l-37 13q-14 5 -27 5q-26 0 -36 -38h-46q19 115 85 115q16 0 36 -7l37 -12q11 -4 21 -4 q28 0 38 42h45z" />
<glyph unicode="&#xd2;" horiz-adv-x="565" d="M533 346q0 -164 -68.5 -259.5t-182.5 -95.5q-117 0 -183.5 96t-66.5 269t67.5 269.5t182.5 96.5q116 0 183.5 -98.5t67.5 -277.5zM282 127q109 0 109 229q0 230 -109 230q-108 0 -108 -230q0 -229 108 -229zM145 959h120l91 -181h-65z" />
<glyph unicode="&#xd3;" horiz-adv-x="565" d="M533 346q0 -164 -68.5 -259.5t-182.5 -95.5q-117 0 -183.5 96t-66.5 269t67.5 269.5t182.5 96.5q116 0 183.5 -98.5t67.5 -277.5zM282 127q109 0 109 229q0 230 -109 230q-108 0 -108 -230q0 -229 108 -229zM421 959l-146 -181h-65l91 181h120z" />
<glyph unicode="&#xd4;" horiz-adv-x="565" d="M533 346q0 -164 -68.5 -259.5t-182.5 -95.5q-117 0 -183.5 96t-66.5 269t67.5 269.5t182.5 96.5q116 0 183.5 -98.5t67.5 -277.5zM282 127q109 0 109 229q0 230 -109 230q-108 0 -108 -230q0 -229 108 -229zM152 778l82 181h98l82 -181h-59l-72 106l-72 -106h-59z" />
<glyph unicode="&#xd5;" horiz-adv-x="565" d="M533 346q0 -164 -68.5 -259.5t-182.5 -95.5q-117 0 -183.5 96t-66.5 269t67.5 269.5t182.5 96.5q116 0 183.5 -98.5t67.5 -277.5zM282 127q109 0 109 229q0 230 -109 230q-108 0 -108 -230q0 -229 108 -229zM414 935q-8 -61 -28.5 -90t-57.5 -29q-13 0 -30 5l-37 13 q-14 5 -27 5q-26 0 -36 -38h-46q19 115 85 115q16 0 36 -7l37 -12q11 -4 21 -4q28 0 38 42h45z" />
<glyph unicode="&#xd6;" horiz-adv-x="565" d="M533 346q0 -164 -68.5 -259.5t-182.5 -95.5q-117 0 -183.5 96t-66.5 269t67.5 269.5t182.5 96.5q116 0 183.5 -98.5t67.5 -277.5zM282 127q109 0 109 229q0 230 -109 230q-108 0 -108 -230q0 -229 108 -229zM305 867q0 23 17.5 40.5t40.5 17.5q24 0 41.5 -17.5 t17.5 -40.5q0 -25 -17 -42t-42 -17q-24 0 -41 17.5t-17 41.5zM145 867q0 23 17.5 40.5t40.5 17.5q24 0 41.5 -17.5t17.5 -40.5q0 -25 -17 -42t-42 -17q-24 0 -41 17.5t-17 41.5z" />
<glyph unicode="&#xd7;" horiz-adv-x="833" d="M197 580l224 -224l225 224l57 -57l-224 -225l224 -224l-57 -58l-225 225l-224 -225l-57 58l224 224l-224 225z" />
<glyph unicode="&#xd8;" horiz-adv-x="565" d="M220 149q26 -27 61 -27q114 0 114 235q0 72 -19 150zM80 -28l42 92q-90 100 -90 303q0 172 65.5 263.5t184.5 91.5q63 0 115 -31l31 69l47 -24l-36 -82q93 -102 93 -297q0 -173 -67 -269t-183 -96q-66 0 -116 34l-33 -74zM343 568q-24 23 -61 23q-58 0 -85 -57t-27 -175 q0 -75 17 -145z" />
<glyph unicode="&#xd9;" horiz-adv-x="549" d="M497 713v-427v-21q0 -132 -21 -173q-50 -101 -201 -101t-202 101q-21 42 -21 173v21v427h142v-459q0 -77 14.5 -107.5t66.5 -30.5t66.5 30t14.5 108v459h141zM137 959h120l91 -181h-65z" />
<glyph unicode="&#xda;" horiz-adv-x="549" d="M497 713v-427v-21q0 -132 -21 -173q-50 -101 -201 -101t-202 101q-21 42 -21 173v21v427h142v-459q0 -77 14.5 -107.5t66.5 -30.5t66.5 30t14.5 108v459h141zM413 959l-146 -181h-65l91 181h120z" />
<glyph unicode="&#xdb;" horiz-adv-x="549" d="M497 713v-427v-21q0 -132 -21 -173q-50 -101 -201 -101t-202 101q-21 42 -21 173v21v427h142v-459q0 -77 14.5 -107.5t66.5 -30.5t66.5 30t14.5 108v459h141zM144 778l82 181h98l82 -181h-59l-72 106l-72 -106h-59z" />
<glyph unicode="&#xdc;" horiz-adv-x="549" d="M497 713v-427v-21q0 -132 -21 -173q-50 -101 -201 -101t-202 101q-21 42 -21 173v21v427h142v-459q0 -77 14.5 -107.5t66.5 -30.5t66.5 30t14.5 108v459h141zM297 867q0 23 17.5 40.5t40.5 17.5q24 0 41.5 -17.5t17.5 -40.5q0 -25 -17 -42t-42 -17q-24 0 -41 17.5 t-17 41.5zM137 867q0 23 17.5 40.5t40.5 17.5q24 0 41.5 -17.5t17.5 -40.5q0 -25 -17 -42t-42 -17q-24 0 -41 17.5t-17 41.5z" />
<glyph unicode="&#xdd;" horiz-adv-x="391" d="M124 0v335l-165 378h150l47 -129q25 -69 44 -139q19 80 40 135l52 133h139l-166 -378v-335h-141zM334 959l-146 -181h-65l91 181h120z" />
<glyph unicode="&#xde;" horiz-adv-x="455" d="M56 0v713h138v-135h10q117 0 174.5 -51t57.5 -156q0 -100 -55 -155.5t-155 -55.5q-21 0 -32 1v-161h-138zM194 269q2 0 7 -0.5t8 -0.5q93 0 93 101q0 99 -93 99q-3 0 -8 -0.5t-7 -0.5v-198z" />
<glyph unicode="&#xdf;" horiz-adv-x="449" d="M51 0v515q0 120 18 163q17 39 55.5 61t92.5 22q89 0 136.5 -51.5t47.5 -147.5q0 -109 -74 -146q90 -33 90 -181q0 -238 -165 -238q-16 0 -42 3v130q6 -1 16 -1q34 0 47 30t13 99q0 94 -66 94q-1 0 -4.5 -0.5t-5.5 -0.5v114q33 0 46.5 21t13.5 69q0 101 -49 101 q-28 0 -35.5 -28t-7.5 -102v-76v-450h-127z" />
<glyph unicode="&#xe0;" horiz-adv-x="453" d="M403 0h-124v71q-42 -80 -108 -80q-68 0 -104.5 63t-36.5 185q0 119 37.5 182t104.5 63q62 0 107 -78v73h124v-479zM279 247q0 129 -63 129q-29 0 -42 -31.5t-13 -98.5q0 -136 58 -136q32 0 46 33t14 104zM108 725h120l91 -181h-65z" />
<glyph unicode="&#xe1;" horiz-adv-x="453" d="M403 0h-124v71q-42 -80 -108 -80q-68 0 -104.5 63t-36.5 185q0 119 37.5 182t104.5 63q62 0 107 -78v73h124v-479zM279 247q0 129 -63 129q-29 0 -42 -31.5t-13 -98.5q0 -136 58 -136q32 0 46 33t14 104zM384 725l-146 -181h-65l91 181h120z" />
<glyph unicode="&#xe2;" horiz-adv-x="453" d="M403 0h-124v71q-42 -80 -108 -80q-68 0 -104.5 63t-36.5 185q0 119 37.5 182t104.5 63q62 0 107 -78v73h124v-479zM279 247q0 129 -63 129q-29 0 -42 -31.5t-13 -98.5q0 -136 58 -136q32 0 46 33t14 104zM115 544l82 181h98l82 -181h-59l-72 106l-72 -106h-59z" />
<glyph unicode="&#xe3;" horiz-adv-x="453" d="M403 0h-124v71q-42 -80 -108 -80q-68 0 -104.5 63t-36.5 185q0 119 37.5 182t104.5 63q62 0 107 -78v73h124v-479zM279 247q0 129 -63 129q-29 0 -42 -31.5t-13 -98.5q0 -136 58 -136q32 0 46 33t14 104zM377 701q-8 -61 -28.5 -90t-57.5 -29q-13 0 -30 5l-37 13 q-14 5 -27 5q-26 0 -36 -38h-46q19 115 85 115q16 0 36 -7l37 -12q11 -4 21 -4q28 0 38 42h45z" />
<glyph unicode="&#xe4;" horiz-adv-x="453" d="M403 0h-124v71q-42 -80 -108 -80q-68 0 -104.5 63t-36.5 185q0 119 37.5 182t104.5 63q62 0 107 -78v73h124v-479zM279 247q0 129 -63 129q-29 0 -42 -31.5t-13 -98.5q0 -136 58 -136q32 0 46 33t14 104zM268 633q0 23 17.5 40.5t40.5 17.5q24 0 41.5 -17.5t17.5 -40.5 q0 -25 -17 -42t-42 -17q-24 0 -41 17.5t-17 41.5zM108 633q0 23 17.5 40.5t40.5 17.5q24 0 41.5 -17.5t17.5 -40.5q0 -25 -17 -42t-42 -17q-24 0 -41 17.5t-17 41.5z" />
<glyph unicode="&#xe5;" horiz-adv-x="453" d="M277 247q0 129 -61 129q-29 0 -42 -31.5t-13 -98.5q0 -136 58 -136q32 0 45 33t13 104zM403 0h-126v71q-39 -80 -106 -80q-68 0 -104.5 63t-36.5 185q0 119 37.5 182t104.5 63q63 0 105 -78v73h126v-479zM132 615q0 46 32 77.5t77 31.5t76.5 -31.5t31.5 -77.5 q0 -45 -31.5 -76.5t-76.5 -31.5t-77 31.5t-32 76.5zM192 615q0 -20 14.5 -34.5t34.5 -14.5t35 14.5t15 34.5t-15 35t-35 15t-34.5 -14.5t-14.5 -35.5z" />
<glyph unicode="&#xe6;" horiz-adv-x="684" d="M403 204v-4q0 -53 20.5 -81.5t56.5 -28.5q44 0 64 54h114q-16 -72 -64.5 -112t-119.5 -40q-91 0 -148 70q-54 -71 -143 -71q-77 0 -121.5 42t-44.5 112q0 64 38.5 102.5t100.5 38.5q55 0 109 -24q2 20 2 28q0 47 -23.5 69.5t-74.5 22.5t-111 -33v114q76 26 134 26 q96 0 142 -67q49 66 140 66q191 0 191 -261v-23h-262zM206 83q66 0 66 58q0 57 -66 57t-66 -57q0 -58 66 -58zM548 279q-1 103 -72 103q-35 0 -54 -25.5t-19 -73.5v-4h145z" />
<glyph unicode="&#xe7;" horiz-adv-x="318" d="M300 343q-31 22 -60 22q-37 0 -60 -32.5t-23 -89.5q0 -59 23 -91t64 -32q31 0 56 25v-126q-41 -28 -91 -28q-83 0 -133 66.5t-50 182.5q0 115 50 181.5t133 66.5q47 0 91 -19v-126zM79 -214v63q64 -21 103 -21q42 0 42 36q0 34 -53 34q-13 0 -21 -1v103h47v-44h6 q97 0 97 -93q0 -98 -111 -98q-43 0 -110 21z" />
<glyph unicode="&#xe8;" horiz-adv-x="428" d="M152 204v-4q0 -53 19 -82t54 -29q45 0 64 55h114q-16 -72 -65 -112.5t-120 -40.5q-89 0 -142 66.5t-53 181.5t53 182t142 67q191 0 191 -261v-23h-257zM293 280q-3 103 -71 103q-70 0 -70 -103h141zM79 725h120l91 -181h-65z" />
<glyph unicode="&#xe9;" horiz-adv-x="428" d="M152 204v-4q0 -53 19 -82t54 -29q45 0 64 55h114q-16 -72 -65 -112.5t-120 -40.5q-89 0 -142 66.5t-53 181.5t53 182t142 67q191 0 191 -261v-23h-257zM293 280q-3 103 -71 103q-70 0 -70 -103h141zM355 725l-146 -181h-65l91 181h120z" />
<glyph unicode="&#xea;" horiz-adv-x="428" d="M152 204v-4q0 -53 19 -82t54 -29q45 0 64 55h114q-16 -72 -65 -112.5t-120 -40.5q-89 0 -142 66.5t-53 181.5t53 182t142 67q191 0 191 -261v-23h-257zM293 280q-3 103 -71 103q-70 0 -70 -103h141zM86 544l82 181h98l82 -181h-59l-72 106l-72 -106h-59z" />
<glyph unicode="&#xeb;" horiz-adv-x="428" d="M152 204v-4q0 -53 19 -82t54 -29q45 0 64 55h114q-16 -72 -65 -112.5t-120 -40.5q-89 0 -142 66.5t-53 181.5t53 182t142 67q191 0 191 -261v-23h-257zM293 280q-3 103 -71 103q-70 0 -70 -103h141zM239 633q0 23 17.5 40.5t40.5 17.5q24 0 41.5 -17.5t17.5 -40.5 q0 -25 -17 -42t-42 -17q-24 0 -41 17.5t-17 41.5zM79 633q0 23 17.5 40.5t40.5 17.5q24 0 41.5 -17.5t17.5 -40.5q0 -25 -17 -42t-42 -17q-24 0 -41 17.5t-17 41.5z" />
<glyph unicode="&#xec;" horiz-adv-x="236" d="M52 0v479h132v-479h-132zM-20 725h120l91 -181h-65z" />
<glyph unicode="&#xed;" horiz-adv-x="236" d="M52 0v479h132v-479h-132zM256 725l-146 -181h-65l91 181h120z" />
<glyph unicode="&#xee;" horiz-adv-x="236" d="M52 0v479h132v-479h-132zM-13 544l82 181h98l82 -181h-59l-72 106l-72 -106h-59z" />
<glyph unicode="&#xef;" horiz-adv-x="236" d="M52 0v479h132v-479h-132zM140 633q0 23 17.5 40.5t40.5 17.5q24 0 41.5 -17.5t17.5 -40.5q0 -25 -17 -42t-42 -17q-24 0 -41 17.5t-17 41.5zM-20 633q0 23 17.5 40.5t40.5 17.5q24 0 41.5 -17.5t17.5 -40.5q0 -25 -17 -42t-42 -17q-24 0 -41 17.5t-17 41.5z" />
<glyph unicode="&#xf0;" horiz-adv-x="444" d="M222 107q35 0 54.5 34.5t19.5 99.5t-19.5 99.5t-54.5 34.5t-54 -34.5t-19 -99.5t19 -99.5t54 -34.5zM258 480q-23 62 -44 103l-98 -46l-30 65l95 43q-40 74 -63 108h129q18 -35 34 -61l78 36l29 -64l-73 -34q107 -206 107 -376q0 -125 -53.5 -194t-146.5 -69 q-91 0 -145 67t-54 182q0 114 54 181t142 67q21 0 39 -8z" />
<glyph unicode="&#xf1;" horiz-adv-x="447" d="M270 0v290q0 39 -9 55.5t-34 16.5q-26 0 -37 -19t-11 -59v-284h-132v479h123v-74q51 79 132 79q61 0 80.5 -35.5t19.5 -121.5v-327h-132zM355 701q-8 -61 -28.5 -90t-57.5 -29q-13 0 -30 5l-37 13q-14 5 -27 5q-26 0 -36 -38h-46q19 115 85 115q16 0 36 -7l37 -12 q11 -4 21 -4q28 0 38 42h45z" />
<glyph unicode="&#xf2;" horiz-adv-x="444" d="M422 240q0 -115 -55 -182t-145 -67q-91 0 -145 67t-54 182t54 181.5t145 66.5t145.5 -66.5t54.5 -181.5zM222 107q35 0 54.5 34.5t19.5 99.5t-19.5 99.5t-54.5 34.5t-54 -34.5t-19 -99.5t19 -99.5t54 -34.5zM84 725h120l91 -181h-65z" />
<glyph unicode="&#xf3;" horiz-adv-x="444" d="M422 240q0 -115 -55 -182t-145 -67q-91 0 -145 67t-54 182t54 181.5t145 66.5t145.5 -66.5t54.5 -181.5zM222 107q35 0 54.5 34.5t19.5 99.5t-19.5 99.5t-54.5 34.5t-54 -34.5t-19 -99.5t19 -99.5t54 -34.5zM360 725l-146 -181h-65l91 181h120z" />
<glyph unicode="&#xf4;" horiz-adv-x="444" d="M422 240q0 -115 -55 -182t-145 -67q-91 0 -145 67t-54 182t54 181.5t145 66.5t145.5 -66.5t54.5 -181.5zM222 107q35 0 54.5 34.5t19.5 99.5t-19.5 99.5t-54.5 34.5t-54 -34.5t-19 -99.5t19 -99.5t54 -34.5zM91 544l82 181h98l82 -181h-59l-72 106l-72 -106h-59z" />
<glyph unicode="&#xf5;" horiz-adv-x="444" d="M422 240q0 -115 -55 -182t-145 -67q-91 0 -145 67t-54 182t54 181.5t145 66.5t145.5 -66.5t54.5 -181.5zM222 107q35 0 54.5 34.5t19.5 99.5t-19.5 99.5t-54.5 34.5t-54 -34.5t-19 -99.5t19 -99.5t54 -34.5zM353 701q-8 -61 -28.5 -90t-57.5 -29q-13 0 -30 5l-37 13 q-14 5 -27 5q-26 0 -36 -38h-46q19 115 85 115q16 0 36 -7l37 -12q11 -4 21 -4q28 0 38 42h45z" />
<glyph unicode="&#xf6;" horiz-adv-x="444" d="M422 240q0 -115 -55 -182t-145 -67q-91 0 -145 67t-54 182t54 181.5t145 66.5t145.5 -66.5t54.5 -181.5zM222 107q35 0 54.5 34.5t19.5 99.5t-19.5 99.5t-54.5 34.5t-54 -34.5t-19 -99.5t19 -99.5t54 -34.5zM244 633q0 23 17.5 40.5t40.5 17.5q24 0 41.5 -17.5 t17.5 -40.5q0 -25 -17 -42t-42 -17q-24 0 -41 17.5t-17 41.5zM84 633q0 23 17.5 40.5t40.5 17.5q24 0 41.5 -17.5t17.5 -40.5q0 -25 -17 -42t-42 -17q-24 0 -41 17.5t-17 41.5z" />
<glyph unicode="&#xf7;" horiz-adv-x="833" d="M417 551q28 0 47.5 -20t19.5 -48q0 -27 -19.5 -46.5t-47.5 -19.5t-47.5 19t-19.5 47t20 48t47 20zM124 339h585v-81h-585v81zM417 179q28 0 47.5 -19.5t19.5 -47.5q0 -27 -19.5 -46.5t-47.5 -19.5t-47.5 19t-19.5 47t20 47.5t47 19.5z" />
<glyph unicode="&#xf8;" horiz-adv-x="444" d="M60 -29l34 68q-71 66 -71 194q0 120 53.5 188t145.5 68q51 0 89 -21l28 57l40 -22l-30 -62q73 -73 73 -201q0 -115 -55 -182t-145 -67q-50 0 -90 20l-32 -62zM184 118q14 -14 38 -14q36 0 56 35t20 102q0 45 -10 78zM259 365q-16 13 -38 13q-35 0 -54.5 -36t-19.5 -103 q0 -46 9 -76z" />
<glyph unicode="&#xf9;" horiz-adv-x="441" d="M396 479v-248q0 -134 -34 -187t-141 -53t-141.5 53t-34.5 187v248h129v-308q0 -35 9.5 -49.5t36.5 -14.5q28 0 37.5 14.5t9.5 49.5v308h129zM83 725h120l91 -181h-65z" />
<glyph unicode="&#xfa;" horiz-adv-x="441" d="M396 479v-248q0 -134 -34 -187t-141 -53t-141.5 53t-34.5 187v248h129v-308q0 -35 9.5 -49.5t36.5 -14.5q28 0 37.5 14.5t9.5 49.5v308h129zM359 725l-146 -181h-65l91 181h120z" />
<glyph unicode="&#xfb;" horiz-adv-x="441" d="M396 479v-248q0 -134 -34 -187t-141 -53t-141.5 53t-34.5 187v248h129v-308q0 -35 9.5 -49.5t36.5 -14.5q28 0 37.5 14.5t9.5 49.5v308h129zM90 544l82 181h98l82 -181h-59l-72 106l-72 -106h-59z" />
<glyph unicode="&#xfc;" horiz-adv-x="441" d="M396 479v-248q0 -134 -34 -187t-141 -53t-141.5 53t-34.5 187v248h129v-308q0 -35 9.5 -49.5t36.5 -14.5q28 0 37.5 14.5t9.5 49.5v308h129zM243 633q0 23 17.5 40.5t40.5 17.5q24 0 41.5 -17.5t17.5 -40.5q0 -25 -17 -42t-42 -17q-24 0 -41 17.5t-17 41.5zM83 633 q0 23 17.5 40.5t40.5 17.5q24 0 41.5 -17.5t17.5 -40.5q0 -25 -17 -42t-42 -17q-24 0 -41 17.5t-17 41.5z" />
<glyph unicode="&#xfd;" horiz-adv-x="370" d="M66 -193l59 193l-124 479h130l46 -212q9 -42 10 -90q10 80 14 98l44 204h130l-180 -672h-129zM323 725l-146 -181h-65l91 181h120z" />
<glyph unicode="&#xfe;" horiz-adv-x="453" d="M50 -193v950h127v-346q41 73 104 73q67 0 104 -63.5t37 -183.5t-36.5 -184t-101.5 -64q-70 0 -107 81v-263h-127zM236 376q-32 0 -45.5 -31t-13.5 -98q0 -72 13 -105t44 -33q57 0 57 140q0 66 -13 96.5t-42 30.5z" />
<glyph unicode="&#xff;" horiz-adv-x="370" d="M66 -193l59 193l-124 479h130l46 -212q9 -42 10 -90q10 80 14 98l44 204h130l-180 -672h-129zM207 633q0 23 17.5 40.5t40.5 17.5q24 0 41.5 -17.5t17.5 -40.5q0 -25 -17 -42t-42 -17q-24 0 -41 17.5t-17 41.5zM47 633q0 23 17.5 40.5t40.5 17.5q24 0 41.5 -17.5 t17.5 -40.5q0 -25 -17 -42t-42 -17q-24 0 -41 17.5t-17 41.5z" />
<glyph unicode="&#x131;" horiz-adv-x="236" d="M52 0v479h132v-479h-132z" />
<glyph unicode="&#x141;" horiz-adv-x="365" d="M62 0v278l-62 -44v136l62 43v300h142v-224l101 72v-136l-101 -72v-214h162v-139h-304z" />
<glyph unicode="&#x142;" horiz-adv-x="250" d="M59 272l-59 -41v103l59 41v382h132v-322l59 42v-103l-59 -42v-332h-132v272z" />
<glyph unicode="&#x152;" horiz-adv-x="722" d="M391 60q-43 -67 -131 -67q-98 0 -159 98t-61 266q0 176 63.5 270.5t178.5 94.5q79 0 115 -70v61h294v-138h-166v-145h144v-131h-144v-160h166v-139h-300v60zM289 128q49 0 75.5 55.5t26.5 161.5q0 125 -24 183t-78 58q-101 0 -101 -229q0 -119 23.5 -174t77.5 -55z" />
<glyph unicode="&#x153;" horiz-adv-x="700" d="M420 205v-4q0 -53 20.5 -82t56.5 -29q44 0 64 55h114q-16 -72 -64.5 -112.5t-119.5 -40.5q-85 0 -133 55q-54 -56 -136 -56q-91 0 -145 66.5t-54 181.5t54 182t145 67q86 0 135 -56q50 56 134 56q191 0 191 -260v-23h-262zM565 279q-1 103 -73 103t-72 -103h145zM223 107 q35 0 54.5 34.5t19.5 99.5q0 134 -74 134q-35 0 -54.5 -34.5t-19.5 -99.5t19.5 -99.5t54.5 -34.5z" />
<glyph unicode="&#x160;" horiz-adv-x="384" d="M34 25v148q53 -47 105 -47q36 0 57 19t21 52q0 18 -8.5 34t-14.5 23t-28.5 26.5t-28.5 24.5q-60 55 -87 101.5t-27 109.5q0 92 52 149t136 57q58 0 120 -35v-126q-66 32 -95 32q-31 0 -50.5 -19.5t-19.5 -50.5q0 -33 19 -57.5t64 -63.5q62 -53 87.5 -92.5t25.5 -108.5 q0 -97 -55 -153.5t-150 -56.5q-71 0 -123 34zM61 959h59l72 -107l72 107h59l-82 -181h-98z" />
<glyph unicode="&#x161;" horiz-adv-x="335" d="M13 41l55 97q47 -31 75 -31q15 0 25 9.5t10 24.5q0 9 -3 16t-11 14.5t-13 11.5t-20 13t-21 13q-45 30 -65 60t-20 73q0 67 42 106.5t113 39.5t131 -41l-56 -95q-38 32 -66 32q-16 0 -26 -9t-10 -23q0 -8 2.5 -14t10 -12.5t13.5 -10.5t19.5 -12.5t21.5 -13.5 q48 -33 69.5 -64t21.5 -77q0 -69 -45.5 -113t-120.5 -44q-72 0 -132 50zM37 725h59l72 -107l72 107h59l-82 -181h-98z" />
<glyph unicode="&#x178;" horiz-adv-x="391" d="M124 0v335l-165 378h150l47 -129q25 -69 44 -139q19 80 40 135l52 133h139l-166 -378v-335h-141zM218 867q0 23 17.5 40.5t40.5 17.5q24 0 41.5 -17.5t17.5 -40.5q0 -25 -17 -42t-42 -17q-24 0 -41 17.5t-17 41.5zM58 867q0 23 17.5 40.5t40.5 17.5q24 0 41.5 -17.5 t17.5 -40.5q0 -25 -17 -42t-42 -17q-24 0 -41 17.5t-17 41.5z" />
<glyph unicode="&#x17d;" horiz-adv-x="428" d="M-8 0l230 582h-196v131h388l-227 -574h207v-139h-402zM83 959h59l72 -107l72 107h59l-82 -181h-98z" />
<glyph unicode="&#x17e;" horiz-adv-x="329" d="M9 0l138 372h-127v107h298l-136 -364h126v-115h-299zM34 725h59l72 -107l72 107h59l-82 -181h-98z" />
<glyph unicode="&#x192;" d="M144 327h-83l16 104h84l24 154q11 71 46 103.5t101 32.5q36 0 79 -12l-18 -113q-30 6 -37 6q-20 0 -28 -13t-13 -45l-18 -113h87l-16 -104h-87l-56 -351q-16 -104 -48 -151t-93 -47q-36 0 -85 13l17 111q18 -5 26 -5q22 0 30.5 15t14.5 53z" />
<glyph unicode="&#x2c6;" horiz-adv-x="500" d="M119 544l82 181h98l82 -181h-59l-72 106l-72 -106h-59z" />
<glyph unicode="&#x2c7;" horiz-adv-x="500" d="M119 725h59l72 -107l72 107h59l-82 -181h-98z" />
<glyph unicode="&#x2d8;" horiz-adv-x="500" d="M118 708h52q4 -38 23 -55t57 -17q39 0 58 17t21 55h53q0 -148 -132 -148t-132 145v3z" />
<glyph unicode="&#x2d9;" horiz-adv-x="500" d="M187 633q0 25 19 44.5t44 19.5q26 0 45 -19.5t19 -44.5q0 -26 -19 -44.5t-45 -18.5t-44.5 19t-18.5 44z" />
<glyph unicode="&#x2da;" horiz-adv-x="500" d="M121 665q0 54 37.5 91.5t91.5 37.5q55 0 92.5 -37.5t37.5 -91.5q0 -55 -37.5 -93t-92.5 -38t-92 38t-37 93zM189 664q0 -26 17.5 -43.5t43.5 -17.5t44 17.5t18 43.5t-18 44t-44 18t-43.5 -18t-17.5 -44z" />
<glyph unicode="&#x2db;" horiz-adv-x="500" d="M301 0q-54 -50 -54 -100q0 -21 8.5 -30t29.5 -9h38v-85h-45q-101 0 -101 90q0 66 81 134h43z" />
<glyph unicode="&#x2dc;" horiz-adv-x="500" d="M381 701q-8 -61 -28.5 -90t-57.5 -29q-13 0 -30 5l-37 13q-14 5 -27 5q-26 0 -36 -38h-46q19 115 85 115q16 0 36 -7l37 -12q11 -4 21 -4q28 0 38 42h45z" />
<glyph unicode="&#x2dd;" horiz-adv-x="500" d="M153 544l46 181h102l-96 -181h-52zM275 544l64 181h106l-114 -181h-56z" />
<glyph unicode="&#x3bc;" horiz-adv-x="590" d="M100 528h112l-61 -310q-6 -28 -6 -51q0 -96 89 -96q61 0 95.5 44.5t53.5 141.5l53 271h110l-71 -361q-9 -47 -9 -65q0 -17 7.5 -24.5t25.5 -7.5q11 0 17 1l-16 -78q-31 -8 -73 -8q-73 0 -73 61v7q-42 -69 -124 -69q-76 0 -115 53l-48 -247h-112z" />
<glyph unicode="&#x2013;" horiz-adv-x="500" d="M0 179v121h500v-121h-500z" />
<glyph unicode="&#x2014;" horiz-adv-x="1000" d="M0 179v121h1000v-121h-1000z" />
<glyph unicode="&#x2018;" horiz-adv-x="252" d="M16 417l121 296h99l-80 -296h-140z" />
<glyph unicode="&#x2019;" horiz-adv-x="252" d="M16 417l80 296h140l-121 -296h-99z" />
<glyph unicode="&#x201a;" horiz-adv-x="252" d="M16 -137l80 296h140l-121 -296h-99z" />
<glyph unicode="&#x201c;" d="M236 713l-80 -296h-140l121 296h99zM424 713l-80 -296h-141l122 296h99z" />
<glyph unicode="&#x201d;" d="M203 417l80 296h141l-121 -296h-100zM16 417l79 296h141l-121 -296h-99z" />
<glyph unicode="&#x201e;" d="M203 -137l80 296h141l-121 -296h-100zM16 -137l79 296h141l-121 -296h-99z" />
<glyph unicode="&#x2020;" d="M153 -193v554h-123v125h123v227h134v-227h123v-125h-123v-554h-134z" />
<glyph unicode="&#x2021;" d="M155 -193v211h-130v123h130v243h-130v123h130v206h130v-206h129v-123h-129v-243h129v-123h-129v-211h-130z" />
<glyph unicode="&#x2022;" horiz-adv-x="590" d="M150 372q0 60 42.5 102t102.5 42q59 0 101.5 -42t42.5 -102q0 -59 -42.5 -102t-102.5 -43t-102 42.5t-42 102.5z" />
<glyph unicode="&#x2026;" horiz-adv-x="1000" d="M253 81q0 -37 -25 -62t-61 -25t-61 25t-25 62t25 61.5t61 24.5t61 -24.5t25 -61.5zM586 81q0 -37 -25 -62t-61 -25t-61 25t-25 62t25 61.5t61 24.5t61 -24.5t25 -61.5zM920 81q0 -37 -25 -62t-61 -25t-61 25t-25 62t25 61.5t61 24.5t61 -24.5t25 -61.5z" />
<glyph unicode="&#x2030;" horiz-adv-x="1153" d="M320 507q0 -105 -36.5 -159.5t-105.5 -54.5q-68 0 -105 54.5t-37 159.5t36.5 160t105.5 55t105.5 -55t36.5 -160zM135 509q0 -67 8.5 -95.5t34.5 -28.5q25 0 33.5 28.5t8.5 95.5q0 69 -8 97t-34 28q-25 0 -34 -29t-9 -96zM776 205q0 -105 -36.5 -159.5t-105.5 -54.5 q-68 0 -105 54.5t-37 159.5t36.5 160t105.5 55t105.5 -54.5t36.5 -160.5zM592 204q0 -68 8 -96t34 -28q25 0 34 28.5t9 95.5q0 68 -8.5 97t-34.5 29q-25 0 -33.5 -29t-8.5 -97zM1116 205q0 -105 -36.5 -159.5t-105.5 -54.5q-68 0 -105 54.5t-37 159.5t36.5 160t105.5 55 t105.5 -55t36.5 -160zM932 204q0 -67 8.5 -95.5t34.5 -28.5q25 0 33.5 28.5t8.5 95.5q0 68 -8.5 97t-34.5 29q-25 0 -33.5 -29t-8.5 -97zM188 -9l354 731h79l-352 -731h-81z" />
<glyph unicode="&#x2039;" horiz-adv-x="226" d="M211 66l-73 -41l-123 219l123 209l73 -41l-97 -168z" />
<glyph unicode="&#x203a;" horiz-adv-x="226" d="M15 66l96 178l-96 168l73 41l123 -209l-123 -219z" />
<glyph unicode="&#x2044;" horiz-adv-x="167" d="M-167 -9l417 731h83l-417 -731h-83z" />
<glyph unicode="&#x2122;" horiz-adv-x="833" d="M110 713h228v-46h-82v-219h-63v219h-83v46zM395 713h83l69 -176l65 176h83v-265h-56v209l-78 -209h-29l-81 209v-209h-56v265z" />
<glyph unicode="&#x2212;" horiz-adv-x="833" d="M124 340h585v-83h-585v83z" />
<glyph unicode="&#xe000;" horiz-adv-x="480" d="M0 480h480v-480h-480v480z" />
<glyph unicode="&#xfb01;" horiz-adv-x="479" d="M250 761v-113q-6 1 -15 1q-30 0 -36.5 -17.5t-6.5 -71.5v-81h58v-101h-58v-378h-132v378h-48v101h48v106v21q0 80 26 114q37 46 113 46q19 0 51 -5zM296 0v479h131v-479h-131zM285 607q0 33 22 55t54 22t54 -22.5t22 -54.5q0 -31 -22 -53t-54 -22t-54 21.5t-22 53.5z" />
<glyph unicode="&#xfb02;" horiz-adv-x="479" d="M250 761v-113q-6 1 -15 1q-30 0 -36.5 -17.5t-6.5 -71.5v-81h58v-101h-58v-378h-132v378h-48v101h48v106v21q0 80 26 114q37 46 113 46q19 0 51 -5zM296 0v757h131v-757h-131z" />
</font>
</defs>
</svg>
